<svg width="74" height="74" viewBox="0 0 74 74" fill="none" xmlns="http://www.w3.org/2000/svg">
<path d="M67.3527 64.2869L59.5891 54.3058C62.1048 53.5541 64.2779 51.9453 65.7311 49.7586C67.5594 46.5983 66.7326 42.7414 65.9327 39.0159C65.449 37.1021 65.1595 35.1443 65.0689 33.1724C65.1592 31.1988 65.4485 29.2393 65.9327 27.3239C66.7275 23.5958 67.5594 19.7414 65.7311 16.5862C63.8377 13.3149 60.0254 12.1041 56.3382 10.9354C54.5027 10.4297 52.7251 9.73355 51.0344 8.85831C49.5002 7.86314 48.0757 6.70848 46.7845 5.41348C44.0491 2.87452 40.9475 0 36.9999 0C33.0524 0 29.9508 2.87452 27.2141 5.41221C25.9234 6.70753 24.4992 7.86266 22.9655 8.85831C21.275 9.7318 19.4978 10.4262 17.663 10.9303C13.9757 12.099 10.1635 13.3098 8.27009 16.5811C6.44178 19.7414 7.26854 23.5983 8.0685 27.3239C8.55221 29.2394 8.8412 31.1988 8.93099 33.1724C8.84072 35.146 8.55142 37.1056 8.06723 39.021C7.27237 42.749 6.4405 46.6034 8.26881 49.7586C9.72393 51.9461 11.8994 53.5545 14.4172 54.3045L6.64719 64.2856C6.21468 64.8419 6.31499 65.6434 6.87143 66.0759C7.13872 66.2837 7.47746 66.3767 7.81333 66.3346L16.9357 65.1953L19.1876 73.075C19.3195 73.5369 19.6997 73.8855 20.1713 73.977C20.2512 73.9922 20.3324 74 20.4137 74C20.8077 74.0003 21.1797 73.8185 21.4217 73.5075L29.5693 63.0276C31.5743 64.9795 34.208 66.1554 36.9999 66.3448C39.7919 66.1554 42.4255 64.9795 44.4306 63.0276L52.5782 73.5037C52.8194 73.8161 53.1914 73.9994 53.5862 74C53.6675 74 53.7487 73.9922 53.8286 73.977C54.3002 73.8855 54.6804 73.5369 54.8123 73.075L57.0642 65.1965L66.1866 66.3359C66.8857 66.4236 67.5237 65.9279 67.6114 65.2288C67.6535 64.8929 67.5605 64.5542 67.3527 64.2869ZM20.9496 69.9568L19.0881 63.4422C18.9151 62.838 18.3275 62.4498 17.7038 62.5275L10.559 63.4206L16.9625 55.1887L17.6681 55.4145C19.5012 55.919 21.2765 56.6133 22.9655 57.4865C24.4997 58.4817 25.9242 59.6363 27.2154 60.9313L27.6543 61.3371L20.9496 69.9568ZM36.9999 63.7931C34.0527 63.7931 31.5737 61.4966 28.948 59.0622C27.5195 57.635 25.9416 56.366 24.2413 55.2767C22.3915 54.3083 20.4442 53.5385 18.4323 52.9802C15.0602 51.9097 11.8744 50.8992 10.4761 48.4828C9.1415 46.1747 9.83047 42.9583 10.5615 39.5517C11.0877 37.4627 11.3964 35.325 11.4827 33.1724C11.3969 31.0199 11.0886 28.8822 10.5628 26.7931C9.83174 23.3878 9.14278 20.1714 10.4773 17.8621C11.8808 15.4456 15.0615 14.4351 18.4336 13.3647C20.4452 12.8061 22.3918 12.0363 24.2413 11.0681C25.9411 9.97884 27.5187 8.70967 28.9467 7.28262C31.5737 4.84828 34.0527 2.55172 36.9999 2.55172C39.9472 2.55172 42.4262 4.84828 45.0519 7.28262C46.4804 8.70983 48.0583 9.97884 49.7586 11.0681C51.6084 12.0365 53.5557 12.8063 55.5676 13.3647C58.9397 14.4351 62.1255 15.4456 63.5238 17.8621C64.8584 20.1701 64.1694 23.3866 63.4384 26.7931C62.9122 28.8822 62.6035 31.0199 62.5172 33.1724C62.603 35.325 62.9113 37.4627 63.4371 39.5517C64.1682 42.957 64.8571 46.1735 63.5226 48.4828C62.1191 50.8992 58.9384 51.9097 55.5663 52.9802C53.5547 53.5387 51.6081 54.3085 49.7586 55.2767C48.0588 56.366 46.4812 57.6352 45.0532 59.0622C42.4262 61.4966 39.9472 63.7931 36.9999 63.7931ZM56.3025 62.5275C55.6787 62.4498 55.0912 62.838 54.9182 63.4422L53.0503 69.9568L46.3469 61.3383L46.7858 60.9326C48.0765 59.6373 49.5007 58.4822 51.0344 57.4865C52.7249 56.613 54.5021 55.9186 56.3369 55.4145L57.0425 55.1887L63.4473 63.4206L56.3025 62.5275Z" fill="#292929"/>
<path d="M37 10.2069C24.3165 10.2069 14.0345 20.4889 14.0345 33.1724C14.0345 45.8559 24.3165 56.1379 37 56.1379C49.6835 56.1379 59.9655 45.8559 59.9655 33.1724C59.9509 20.495 49.6774 10.2217 37 10.2069ZM37 53.5862C25.7258 53.5862 16.5862 44.4466 16.5862 33.1724C16.5862 21.8983 25.7258 12.7586 37 12.7586C48.2742 12.7586 57.4138 21.8983 57.4138 33.1724C57.4004 44.4412 48.2687 53.5728 37 53.5862Z" fill="#292929"/>
<path d="M51.7209 27.8431C51.2409 27.1836 50.4747 26.7934 49.6591 26.7931H41.8483L39.4241 19.3586C38.9841 18.0198 37.5421 17.2913 36.2032 17.7313C35.4331 17.9844 34.829 18.5885 34.5759 19.3586L32.1581 26.7931H24.3409C22.9316 26.7924 21.7885 27.9342 21.7879 29.3435C21.7874 30.1601 22.1778 30.9273 22.8379 31.4079L29.1611 36.001L26.7459 43.4354C26.3102 44.7757 27.0437 46.2154 28.3838 46.6509C29.161 46.9035 30.012 46.7686 30.673 46.2882L37 41.6964L43.3245 46.2895C44.2153 46.9514 45.4344 46.9514 46.3253 46.2895C47.2294 45.647 47.6058 44.4878 47.2516 43.4367L44.8364 36.001L51.1595 31.4079C52.299 30.5786 52.5504 28.9825 51.7209 27.8431ZM42.5857 34.4827C42.1382 34.8079 41.9512 35.3844 42.1226 35.9104L44.8249 44.2264L37.7502 39.0873C37.3032 38.7627 36.6981 38.7627 36.2511 39.0873L29.1764 44.2264L31.8774 35.9104C32.0482 35.3847 31.8613 34.809 31.4143 34.484L24.3409 29.3448H33.0844C33.6372 29.3448 34.1269 28.9888 34.2977 28.4632L37 20.1471L39.7023 28.4619C39.8731 28.9876 40.3629 29.3435 40.9156 29.3435L49.6591 29.3448L42.5857 34.4827Z" fill="#292929"/>
</svg>
