<svg width="70" height="72" viewBox="0 0 70 72" fill="none" xmlns="http://www.w3.org/2000/svg">
<g clip-path="url(#clip0)">
<path d="M69.74 47.2447C69.6796 47.168 69.6103 47.0993 69.5336 47.0401C66.3353 44.5853 61.9917 44.4304 58.6357 46.6513L43.9894 56.4001H39.99L32.2118 51.6001H37.3335C41.1979 51.5962 44.3297 48.3749 44.3335 44.4001C44.3335 43.7374 43.8111 43.2001 43.1668 43.2001L35.1168 43.2061L23.4501 42.006C23.2537 41.9867 23.0555 42.018 22.8738 42.0972L14.9334 45.6001H0V48.0001H15.1667C15.3248 48.0004 15.4813 47.9674 15.6264 47.9029L23.5166 44.4229L35.0001 45.6001H41.8532C41.3181 47.7178 39.4608 49.1972 37.3335 49.2001H28.0001C27.3558 49.2002 26.8336 49.7377 26.8339 50.4005C26.834 50.8214 27.0486 51.2116 27.3993 51.4285L39.066 58.6285C39.2474 58.7407 39.4551 58.8001 39.6668 58.8001H44.3335C44.5582 58.8003 44.7782 58.7335 44.967 58.6081L59.9004 48.6673C61.9648 47.3015 64.5619 47.1059 66.7978 48.1477L43.9205 67.2001H37.5412L15.5704 58.8745C15.4412 58.8255 15.3045 58.8003 15.1667 58.8001H0V61.2001H14.9591L36.9298 69.5258C37.059 69.575 37.1957 69.6 37.3335 69.6002H44.3335C44.6007 69.6 44.8597 69.5055 45.0674 69.3326L69.5675 48.9325C70.0683 48.5155 70.1455 47.7598 69.74 47.2447Z" fill="#292929"/>
<path d="M56.0002 16.7999V8.3999C56.0002 3.66348 42.8005 2.39987 35.0001 2.39987C27.1998 2.39987 14 3.66348 14 8.3999V16.7999C14.0578 17.7839 14.5751 18.6784 15.3884 19.1999C14.5721 19.7185 14.0537 20.6146 14 21.6V30C14 34.7364 27.1998 36 35.0001 36C42.8005 36 56.0002 34.7364 56.0002 30V21.6C55.9466 20.6146 55.4283 19.7185 54.6119 19.1999C55.4252 18.6784 55.9425 17.7839 56.0002 16.7999ZM53.6669 30C53.4464 31.218 46.6575 33.6 35.0001 33.6C23.3427 33.6 16.5539 31.218 16.3334 30V24.6156C20.4739 26.904 29.2181 27.6 35.0001 27.6C40.7822 27.6 49.5275 26.904 53.6669 24.6156V30ZM35.0001 25.2C23.3427 25.2 16.5585 22.8192 16.3334 21.6072C16.3334 21.5952 16.499 21.138 17.8314 20.5079C22.3347 22.2468 29.8458 22.8 35.0001 22.8C40.1545 22.8 47.6655 22.2468 52.1689 20.5056C53.5 21.1356 53.6669 21.6 53.6669 21.6C53.4464 22.824 46.6575 25.2 35.0001 25.2ZM53.6669 16.7999C53.4464 18.0239 46.6575 20.3999 35.0001 20.3999C23.3427 20.3999 16.5539 18.0179 16.3334 16.7999V11.4155C20.4739 13.7039 29.2181 14.3999 35.0001 14.3999C40.7822 14.3999 49.5275 13.7039 53.6669 11.4155V16.7999ZM35.0001 11.9999C23.3626 11.9999 16.5585 9.6191 16.3334 8.4071C16.5585 7.18069 23.3462 4.79988 35.0001 4.79988C46.6377 4.79988 53.4242 7.17469 53.6669 8.3999C53.4242 9.6251 46.6377 11.9999 35.0001 11.9999Z" fill="#292929"/>
</g>
<defs>
<clipPath id="clip0">
<rect width="70" height="72" fill="white"/>
</clipPath>
</defs>
</svg>
