<svg width="70" height="70" viewBox="0 0 70 70" fill="none" xmlns="http://www.w3.org/2000/svg">
<g clip-path="url(#clip0)">
<path d="M59.3191 18.4104H15.9838V59.6821H59.3191V18.4104ZM34.556 22.5375H40.7468V30.7919H34.556V22.5375ZM55.1919 55.5549H20.1109V22.5375H30.4289V34.9191H44.874V22.5375H55.1919V55.5549Z" fill="#292929" stroke="white" stroke-width="1.5"/>
<path d="M24.2381 39.0462H36.6196V43.1734H24.2381V39.0462Z" fill="#292929" stroke="white" stroke-width="1.5"/>
<path d="M24.2381 47.3005H31.0569V51.4277H24.2381V47.3005Z" fill="#292929" stroke="white" stroke-width="1.5"/>
<path d="M58.7 8.78028H6.96689L11.587 2.4276L8.24934 0L0.362732 10.8439L8.24921 21.6877L11.587 19.2601L6.96689 12.9075H58.7C62.4549 12.9075 65.5099 15.9624 65.5099 19.7173V59.063C65.5099 62.8179 62.4549 65.8728 58.7 65.8728H16.6029C12.848 65.8728 9.79304 62.8179 9.79304 59.063V41.1098H5.66587V59.063C5.66587 65.0936 10.5723 70 16.6029 70H58.7C64.7307 70 69.637 65.0936 69.637 59.063V19.7173C69.637 13.6865 64.7307 8.78028 58.7 8.78028Z" fill="#292929" stroke="white" stroke-width="1.5"/>
</g>
<defs>
<clipPath id="clip0">
<rect width="70" height="70" fill="white"/>
</clipPath>
</defs>
</svg>
