<svg width="76" height="76" viewBox="0 0 76 76" fill="none" xmlns="http://www.w3.org/2000/svg">
<g clip-path="url(#clip0)">
<path d="M38 76C37.805 76 37.6099 75.9809 37.4178 75.9424C30.0553 74.4699 22.2956 70.2378 16.6605 64.6215C9.25701 57.243 5.34375 47.6288 5.34375 36.8183V8.90625C5.34375 7.26661 6.67286 5.9375 8.3125 5.9375H14.25C15.043 5.9375 15.7884 5.6286 16.3492 5.06795C16.9099 4.5073 17.2188 3.7617 17.2188 2.96875C17.2188 1.32911 18.5479 0 20.1875 0H55.8125C57.4521 0 58.7812 1.32911 58.7812 2.96875C58.7812 4.60616 60.113 5.9375 61.75 5.9375H67.6875C69.3271 5.9375 70.6562 7.26661 70.6562 8.90625V36.8183C70.6562 46.0168 67.4445 55.0003 61.6128 62.1137C55.7812 69.2271 47.602 74.1383 38.5822 75.9423C38.3901 75.9809 38.195 76 38 76ZM11.2812 11.875V36.8183C11.2812 56.8887 27.0438 67.5496 38.0036 69.9976C53.5196 66.6089 64.7188 52.751 64.7188 36.8183V11.875H61.75C57.8792 11.875 54.5774 9.39342 53.3523 5.9375H22.6519C22.2153 7.17577 21.5035 8.31057 20.5476 9.26636C18.8655 10.9486 16.6289 11.875 14.25 11.875H11.2812Z" fill="#292929" stroke="white" stroke-width="3.5"/>
<path d="M38 63.7713C37.7103 63.7713 37.4205 63.7289 37.1402 63.6441C25.4647 60.1113 17.2188 49.3518 17.2188 36.8177V19.7637C17.2188 18.5071 18.0099 17.3867 19.194 16.9661C21.5301 16.1365 23.6434 14.7176 25.3056 12.8627C25.8688 12.2343 26.6727 11.8752 27.5166 11.8752H48.4834C49.3273 11.8752 50.1314 12.2343 50.6945 12.8627C52.3566 14.7176 54.47 16.1367 56.806 16.9661C57.9901 17.3865 58.7812 18.5071 58.7812 19.7637V36.8179C58.7812 49.1829 50.6255 60.0868 38.8593 63.6444C38.5791 63.729 38.2895 63.7713 38 63.7713ZM23.1562 21.742V36.8177C23.1562 46.3194 29.0837 54.5931 37.9988 57.6818C46.7833 54.6212 52.8438 46.1693 52.8438 36.8177V21.742C50.7708 20.7538 48.8641 19.4229 47.2178 17.8125H28.7822C27.1359 19.4231 25.2292 20.7538 23.1562 21.742Z" fill="#292929" stroke="white" stroke-width="3.5"/>
<path d="M35.0312 43.3437C34.2714 43.3437 33.5117 43.0538 32.932 42.4742L29.9633 39.5054C28.8038 38.346 28.8038 36.4663 29.9633 35.307C31.1227 34.1477 33.0024 34.1476 34.1617 35.307L35.0312 36.1766L41.8381 29.3695C42.9976 28.2101 44.8774 28.2101 46.0367 29.3695C47.196 30.529 47.1961 32.4086 46.0367 33.5679L37.1304 42.4742C36.5508 43.0538 35.7911 43.3437 35.0312 43.3437Z" fill="#292929" stroke="white" stroke-width="3.5"/>
</g>
<defs>
<clipPath id="clip0">
<rect width="76" height="76" fill="white"/>
</clipPath>
</defs>
</svg>
